<?xml version="1.0" encoding="UTF-8" standalone="no"?>
<!-- Generator: Adobe Illustrator 17.0.0, SVG Export Plug-In . SVG Version: 6.00 Build 0)  -->

<svg
   xmlns:dc="http://purl.org/dc/elements/1.1/"
   xmlns:cc="http://creativecommons.org/ns#"
   xmlns:rdf="http://www.w3.org/1999/02/22-rdf-syntax-ns#"
   xmlns:svg="http://www.w3.org/2000/svg"
   xmlns="http://www.w3.org/2000/svg"
   xmlns:sodipodi="http://sodipodi.sourceforge.net/DTD/sodipodi-0.dtd"
   xmlns:inkscape="http://www.inkscape.org/namespaces/inkscape"
   version="1.1"
   id="Calque_1"
   x="0px"
   y="0px"
   width="141.73px"
   height="70.87px"
   viewBox="0 0 141.73 70.87"
   enable-background="new 0 0 141.73 70.87"
   xml:space="preserve"
   sodipodi:docname="myjob.svg"
   inkscape:version="0.92.4 (f8dce91, 2019-08-02)"><metadata
   id="metadata3841"><rdf:RDF><cc:Work
       rdf:about=""><dc:format>image/svg+xml</dc:format><dc:type
         rdf:resource="http://purl.org/dc/dcmitype/StillImage" /><dc:title></dc:title></cc:Work></rdf:RDF></metadata><defs
   id="defs3839" /><sodipodi:namedview
   pagecolor="#ffffff"
   bordercolor="#666666"
   borderopacity="1"
   objecttolerance="10"
   gridtolerance="10"
   guidetolerance="10"
   inkscape:pageopacity="0"
   inkscape:pageshadow="2"
   inkscape:window-width="3100"
   inkscape:window-height="2032"
   id="namedview3837"
   showgrid="false"
   inkscape:zoom="20.793058"
   inkscape:cx="47.107068"
   inkscape:cy="33.511282"
   inkscape:window-x="140"
   inkscape:window-y="54"
   inkscape:window-maximized="1"
   inkscape:current-layer="g3834" />
<g
   id="g3834">
	<path
   fill="#C61618"
   d="M2.834,48.023V23.304h5.193v4.445c0.741-1.491,1.863-2.665,3.368-3.523   c1.504-0.856,3.126-1.285,4.864-1.285c3.901,0,6.546,1.587,7.937,4.762c2.449-3.175,5.496-4.762,9.139-4.762   c2.782,0,5.034,0.85,6.758,2.551c1.724,1.701,2.585,4.161,2.585,7.382v15.149h-5.193V34.416c0-4.566-1.89-6.849-5.669-6.849   c-1.769,0-3.311,0.565-4.626,1.695c-1.315,1.13-2.003,2.787-2.064,4.972v13.788h-5.193V34.416c0-2.366-0.42-4.099-1.259-5.199   c-0.839-1.1-2.158-1.65-3.957-1.65s-3.364,0.595-4.694,1.786s-1.996,2.939-1.996,5.244v13.425H2.834z"
   id="path3822" />
	<path
   fill="#C61618"
   d="M46.556,23.304h5.579l7.393,18.21l7.37-18.21h5.579L60.503,52.672c-0.711,1.603-1.735,2.869-3.073,3.799   c-1.338,0.93-2.808,1.395-4.411,1.395c-2.268,0-4.309-0.816-6.123-2.449l2.358-4.241c1.089,1.028,2.211,1.542,3.368,1.542   s2.101-0.42,2.835-1.259c0.733-0.839,1.1-1.75,1.1-2.733C56.557,48.287,53.224,39.813,46.556,23.304z"
   id="path3824"
   style="fill:#ff0000;fill-opacity:1" />
	<path
   fill="#C61618"
   d="M67.692,55.508l2.404-3.821c1.043,1.034,2.094,1.552,3.152,1.552c0.015,0,0.03,0,0.045,0   c1.058-0.015,1.867-0.365,2.427-1.049c0.559-0.686,0.839-1.637,0.839-2.854V23.304h5.193v26.057c0,2.6-0.782,4.668-2.347,6.202   c-1.565,1.535-3.451,2.302-5.658,2.302S69.521,57.079,67.692,55.508z M76.786,18.383c-0.65-0.65-0.975-1.421-0.975-2.313   c0-0.892,0.325-1.663,0.975-2.313c0.65-0.65,1.425-0.975,2.324-0.975c0.9,0,1.674,0.325,2.324,0.975   c0.65,0.65,0.975,1.421,0.975,2.313c0,0.892-0.325,1.663-0.975,2.313c-0.65,0.65-1.425,0.975-2.324,0.975   C78.211,19.358,77.436,19.033,76.786,18.383z"
   id="path3826"
   style="fill:#ff0000;fill-opacity:1" />
	<path
   fill="#C61618"
   d="M113.633,48.023V13.62h5.193v14.083c2.041-3.175,4.721-4.762,8.039-4.762c3.319,0,6.153,1.155,8.504,3.466   c2.351,2.309,3.526,5.361,3.526,9.154c0,3.795-1.168,6.881-3.504,9.258s-5.061,3.566-8.175,3.566s-5.911-1.361-8.391-4.082v3.719   H113.633z M120.879,29.905c-1.429,1.559-2.143,3.508-2.143,5.849c0,2.341,0.714,4.26,2.143,5.758   c1.429,1.499,3.164,2.247,5.205,2.247c2.041,0,3.821-0.741,5.341-2.224c1.519-1.484,2.279-3.402,2.279-5.758   s-0.745-4.313-2.234-5.872c-1.489-1.559-3.269-2.338-5.341-2.338C124.058,27.567,122.308,28.346,120.879,29.905z"
   id="path3828"
   style="fill:#ff0000;fill-opacity:1" />
	<path
   fill="#C61618"
   d="M106.978,44.698c2.481-2.459,3.721-5.469,3.721-9.035s-1.24-6.577-3.721-9.035   c-2.479-2.459-5.579-3.687-9.296-3.687c-3.717,0-6.813,1.228-9.285,3.687c-2.474,2.459-3.71,5.469-3.71,9.035   s1.236,6.577,3.71,9.035c2.472,2.459,5.567,3.687,9.285,3.687c1.689,0,3.244-0.267,4.678-0.774l3.21,5.534l3.049-1.76l-3.145-5.42   C105.995,45.583,106.501,45.171,106.978,44.698z M92.084,41.499c-1.47-1.506-2.204-3.451-2.204-5.836s0.733-4.33,2.204-5.836   c1.468-1.506,3.334-2.26,5.598-2.26c2.264,0,4.133,0.754,5.609,2.26c1.476,1.506,2.215,3.451,2.215,5.836s-0.739,4.33-2.215,5.836   c-1.476,1.508-3.345,2.26-5.609,2.26C95.418,43.759,93.552,43.007,92.084,41.499z"
   id="path3830"
   style="fill:#ff0000;fill-opacity:1" />
	
		<rect
   x="103.577"
   y="54.81"
   transform="matrix(-0.5 -0.866 0.866 -0.5 115.283 183.194)"
   fill="#010202"
   width="13.896"
   height="7.015"
   id="rect3832" />
<path
   style="stroke-width:0.04809298;fill:#ff0000;fill-opacity:1"
   d="M 2.8326762,35.661038 V 23.32519 h 2.5970206 2.5970206 l 3.367e-4,2.2243 3.366e-4,2.224301 0.211612,-0.370449 c 0.6955273,-1.21752 1.6787795,-2.238114 2.8675463,-2.976407 0.814509,-0.505857 1.895003,-0.959337 2.835604,-1.190095 0.747622,-0.183413 1.41626,-0.254508 2.380603,-0.253123 1.688175,0.0024 3.011065,0.268298 4.240062,0.852168 1.40152,0.665831 2.685806,1.963496 3.389803,3.425118 0.115109,0.238987 0.223083,0.4359 0.239942,0.437585 0.01686,0.0017 0.156606,-0.15384 0.31055,-0.345611 0.657083,-0.818543 1.773857,-1.872611 2.592469,-2.446902 1.857645,-1.303218 3.858412,-1.920771 6.228447,-1.922459 1.770248,-0.0013 3.078019,0.265313 4.422658,0.901511 2.378419,1.125316 3.985065,3.188034 4.589121,5.891819 0.30264,1.354633 0.287301,0.854783 0.304907,9.935925 l 0.01606,8.284015 H 40.083827 37.51088 l -0.0161,-7.442387 c -0.01477,-6.828347 -0.02309,-7.485754 -0.10083,-7.968 -0.269403,-1.671236 -0.77009,-2.796749 -1.616783,-3.634431 -0.946911,-0.936832 -2.241824,-1.394696 -3.944427,-1.394696 -1.645661,0 -3.014037,0.444467 -4.276546,1.38908 -1.250644,0.935735 -1.987288,2.175508 -2.321102,3.906417 -0.105445,0.546761 -0.105677,0.561637 -0.121981,7.845908 l -0.01634,7.298109 H 22.52698 19.957186 l -0.0165,-7.514527 c -0.01519,-6.917841 -0.02333,-7.560353 -0.102474,-8.091643 -0.417372,-2.801693 -1.502301,-4.198914 -3.651034,-4.701965 -0.377736,-0.08843 -0.587474,-0.103391 -1.45149,-0.103509 -0.864058,-1.2e-4 -1.080734,0.01527 -1.499943,0.106536 -0.985143,0.21447 -1.781399,0.565466 -2.587959,1.140792 -1.3620757,0.97158 -2.1259884,2.201819 -2.5102969,4.042695 -0.071567,0.342815 -0.081266,1.121964 -0.09649,7.751373 l -0.016924,7.370248 h -2.595699 -2.595699 z"
   id="path3843"
   inkscape:connector-curvature="0" /><path
   style="stroke-width:0.04809298;fill:#ff0000;fill-opacity:0"
   d="M 2.8326762,35.661038 V 23.32519 H 5.4292165 8.025757 l 0.012503,2.219318 0.012504,2.219318 0.2552617,-0.431264 c 0.9884842,-1.670042 2.4224943,-2.879198 4.3135703,-3.637198 0.995674,-0.399096 1.743845,-0.576462 2.790143,-0.661446 1.837532,-0.149253 3.7526,0.155635 5.141566,0.818561 1.355347,0.646881 2.637857,1.941495 3.396089,3.428141 0.117984,0.231328 0.229279,0.420694 0.247322,0.420814 0.01804,1.2e-4 0.194424,-0.189149 0.391957,-0.420596 0.448017,-0.524935 1.37559,-1.443559 1.8837,-1.865528 2.324323,-1.930271 5.315173,-2.733146 8.575808,-2.302122 2.965585,0.392022 5.399804,2.134466 6.615131,4.735195 0.377467,0.807756 0.727469,2.02183 0.848268,2.942439 0.06899,0.525759 0.09309,2.591775 0.11952,10.244606 l 0.02404,6.961458 h -2.572716 -2.572715 l -0.0027,-6.889318 c -0.0015,-3.789126 -0.02196,-7.268051 -0.04546,-7.730946 -0.154869,-3.050555 -1.497642,-5.024845 -3.824356,-5.622983 -1.225026,-0.314922 -2.931214,-0.257412 -4.113378,0.13865 -0.95437,0.319743 -1.91825,0.913179 -2.619646,1.612849 -0.850021,0.847928 -1.348013,1.812356 -1.663828,3.222229 l -0.107729,0.48093 -0.0182,7.394294 -0.0182,7.394295 h -2.566935 -2.566934 l -0.02013,-7.658806 c -0.02001,-7.611286 -0.02078,-7.662237 -0.12437,-8.211875 -0.205597,-1.090898 -0.494407,-1.938514 -0.879661,-2.581679 -0.386953,-0.646002 -1.144664,-1.288197 -1.88216,-1.595217 -0.754249,-0.313995 -1.086757,-0.36583 -2.34235,-0.365153 -1.06127,5.72e-4 -1.161106,0.0084 -1.637281,0.127877 -1.25808,0.315747 -2.343995,0.91273 -3.2179222,1.769058 -0.8037173,0.787532 -1.295351,1.68749 -1.6518542,3.023792 l -0.1491675,0.559135 -0.017575,7.466434 -0.017576,7.466434 H 5.4264708 2.8326762 Z"
   id="path3845"
   inkscape:connector-curvature="0" /><path
   style="fill:#ff0000;fill-opacity:0;stroke-width:0.04809298"
   d="M 2.8519134,35.661038 V 23.32519 h 2.5729741 2.5729742 v 2.212277 c 0,1.216752 0.016231,2.211671 0.03607,2.210931 0.019838,-7.4e-4 0.1372468,-0.179286 0.2609077,-0.396767 0.3464306,-0.609265 0.7788379,-1.162432 1.3617295,-1.742024 0.6887631,-0.684865 1.2627201,-1.09023 2.2127771,-1.562806 1.628774,-0.810183 3.067971,-1.113611 4.905483,-1.034234 1.611985,0.06963 2.790165,0.345325 3.93261,0.920216 1.301131,0.654744 2.518176,1.912246 3.238142,3.345785 0.116867,0.232696 0.229837,0.423083 0.251043,0.423083 0.02121,0 0.242313,-0.24019 0.491347,-0.533756 1.75391,-2.067545 3.920636,-3.435696 6.190597,-3.908972 0.925038,-0.192866 1.423462,-0.240843 2.488338,-0.23952 1.859576,0.0023 2.993428,0.236109 4.37646,0.902423 1.05274,0.507187 1.707669,0.981697 2.47712,1.794728 1.223552,1.292852 2.083956,3.251896 2.31403,5.268786 0.03248,0.284754 0.05936,3.408887 0.07507,8.727531 l 0.02448,8.284015 h -2.546395 -2.546396 l -0.03018,-7.418341 c -0.0189,-4.645986 -0.04887,-7.571113 -0.08018,-7.827132 -0.07091,-0.579766 -0.309976,-1.531673 -0.512753,-2.041672 -0.722015,-1.815913 -2.088583,-2.856042 -4.082069,-3.106963 -0.601607,-0.07572 -2.031337,-0.03268 -2.52217,0.07594 -1.287603,0.28493 -2.427028,0.879366 -3.311345,1.727523 -0.875165,0.839381 -1.39532,1.789398 -1.726227,3.152805 l -0.122561,0.504976 -0.03634,4.352414 c -0.01999,2.393828 -0.03864,5.753723 -0.04146,7.466434 l -0.0051,3.11402 h -2.54895 -2.548928 l -0.0039,-5.494622 c -0.0022,-3.022042 -0.02198,-6.52261 -0.04403,-7.779039 -0.038,-2.165291 -0.04638,-2.31486 -0.160616,-2.86822 -0.467842,-2.266171 -1.382575,-3.469692 -3.061736,-4.028352 -0.606046,-0.201632 -1.101403,-0.269281 -1.971812,-0.269281 -1.03524,0 -1.660301,0.105448 -2.555333,0.431087 -1.071555,0.389862 -2.2637672,1.282241 -2.9359377,2.197569 -0.4249129,0.578626 -0.8205459,1.474012 -1.0591583,2.39706 -0.095132,0.368009 -0.101052,0.5615 -0.136104,4.4486 -0.020156,2.235121 -0.03886,5.616658 -0.041565,7.514527 L 7.9979,47.99689 H 5.4248875 2.8519134 Z"
   id="path4652"
   inkscape:connector-curvature="0" /><path
   style="fill:#ff0000;fill-opacity:0;stroke-width:0.04809298"
   d="M 2.8519134,35.661038 V 23.32519 h 2.5729741 2.5729742 v 2.212277 c 0,1.216752 0.016231,2.211671 0.03607,2.210931 0.019838,-7.4e-4 0.1372468,-0.179286 0.2609077,-0.396767 0.3464306,-0.609265 0.7788379,-1.162432 1.3617295,-1.742024 0.6887631,-0.684865 1.2627201,-1.09023 2.2127771,-1.562806 1.628774,-0.810183 3.067971,-1.113611 4.905483,-1.034234 1.611985,0.06963 2.790165,0.345325 3.93261,0.920216 1.301131,0.654744 2.518176,1.912246 3.238142,3.345785 0.116867,0.232696 0.229837,0.423083 0.251043,0.423083 0.02121,0 0.242313,-0.24019 0.491347,-0.533756 1.75391,-2.067545 3.920636,-3.435696 6.190597,-3.908972 0.925038,-0.192866 1.423462,-0.240843 2.488338,-0.23952 1.859576,0.0023 2.993428,0.236109 4.37646,0.902423 1.05274,0.507187 1.707669,0.981697 2.47712,1.794728 1.223552,1.292852 2.083956,3.251896 2.31403,5.268786 0.03248,0.284754 0.05936,3.408887 0.07507,8.727531 l 0.02448,8.284015 h -2.546395 -2.546396 l -0.03018,-7.418341 c -0.0189,-4.645986 -0.04887,-7.571113 -0.08018,-7.827132 -0.07091,-0.579766 -0.309976,-1.531673 -0.512753,-2.041672 -0.722015,-1.815913 -2.088583,-2.856042 -4.082069,-3.106963 -0.601607,-0.07572 -2.031337,-0.03268 -2.52217,0.07594 -1.287603,0.28493 -2.427028,0.879366 -3.311345,1.727523 -0.875165,0.839381 -1.39532,1.789398 -1.726227,3.152805 l -0.122561,0.504976 -0.03634,4.352414 c -0.01999,2.393828 -0.03864,5.753723 -0.04146,7.466434 l -0.0051,3.11402 h -2.54895 -2.548928 l -0.0039,-5.494622 c -0.0022,-3.022042 -0.02198,-6.52261 -0.04403,-7.779039 -0.038,-2.165291 -0.04638,-2.31486 -0.160616,-2.86822 -0.467842,-2.266171 -1.382575,-3.469692 -3.061736,-4.028352 -0.606046,-0.201632 -1.101403,-0.269281 -1.971812,-0.269281 -1.03524,0 -1.660301,0.105448 -2.555333,0.431087 -1.071555,0.389862 -2.2637672,1.282241 -2.9359377,2.197569 -0.4249129,0.578626 -0.8205459,1.474012 -1.0591583,2.39706 -0.095132,0.368009 -0.101052,0.5615 -0.136104,4.4486 -0.020156,2.235121 -0.03886,5.616658 -0.041565,7.514527 L 7.9979,47.99689 H 5.4248875 2.8519134 Z"
   id="path4654"
   inkscape:connector-curvature="0" /><path
   style="fill:#ff7f66;fill-opacity:0;stroke-width:0.04809298"
   d="M 2.8519134,35.661038 V 23.32519 h 2.5729741 2.5729742 v 2.212277 c 0,1.216752 0.016231,2.211671 0.03607,2.210931 0.019838,-7.4e-4 0.1372468,-0.179286 0.2609077,-0.396767 0.3464306,-0.609265 0.7788379,-1.162432 1.3617295,-1.742024 0.6887631,-0.684865 1.2627201,-1.09023 2.2127771,-1.562806 1.628774,-0.810183 3.067971,-1.113611 4.905483,-1.034234 1.611985,0.06963 2.790165,0.345325 3.93261,0.920216 1.301131,0.654744 2.518176,1.912246 3.238142,3.345785 0.116867,0.232696 0.229837,0.423083 0.251043,0.423083 0.02121,0 0.242313,-0.24019 0.491347,-0.533756 1.75391,-2.067545 3.920636,-3.435696 6.190597,-3.908972 0.925038,-0.192866 1.423462,-0.240843 2.488338,-0.23952 1.859576,0.0023 2.993428,0.236109 4.37646,0.902423 1.05274,0.507187 1.707669,0.981697 2.47712,1.794728 1.223552,1.292852 2.083956,3.251896 2.31403,5.268786 0.03248,0.284754 0.05936,3.408887 0.07507,8.727531 l 0.02448,8.284015 h -2.546395 -2.546396 l -0.03018,-7.418341 c -0.0189,-4.645986 -0.04887,-7.571113 -0.08018,-7.827132 -0.07091,-0.579766 -0.309976,-1.531673 -0.512753,-2.041672 -0.722015,-1.815913 -2.088583,-2.856042 -4.082069,-3.106963 -0.601607,-0.07572 -2.031337,-0.03268 -2.52217,0.07594 -1.287603,0.28493 -2.427028,0.879366 -3.311345,1.727523 -0.875165,0.839381 -1.39532,1.789398 -1.726227,3.152805 l -0.122561,0.504976 -0.03634,4.352414 c -0.01999,2.393828 -0.03864,5.753723 -0.04146,7.466434 l -0.0051,3.11402 h -2.54895 -2.548928 l -0.0039,-5.494622 c -0.0022,-3.022042 -0.02198,-6.52261 -0.04403,-7.779039 -0.038,-2.165291 -0.04638,-2.31486 -0.160616,-2.86822 -0.467842,-2.266171 -1.382575,-3.469692 -3.061736,-4.028352 -0.606046,-0.201632 -1.101403,-0.269281 -1.971812,-0.269281 -1.03524,0 -1.660301,0.105448 -2.555333,0.431087 -1.071555,0.389862 -2.2637672,1.282241 -2.9359377,2.197569 -0.4249129,0.578626 -0.8205459,1.474012 -1.0591583,2.39706 -0.095132,0.368009 -0.101052,0.5615 -0.136104,4.4486 -0.020156,2.235121 -0.03886,5.616658 -0.041565,7.514527 L 7.9979,47.99689 H 5.4248875 2.8519134 Z"
   id="path4656"
   inkscape:connector-curvature="0" /><path
   style="fill:#ff7f66;fill-opacity:0;stroke-width:0.04809298"
   d="M 2.8519134,35.661038 V 23.32519 h 2.5729741 2.5729742 v 2.212277 c 0,1.216752 0.016231,2.211671 0.03607,2.210931 0.019838,-7.4e-4 0.1372468,-0.179286 0.2609077,-0.396767 0.3464306,-0.609265 0.7788379,-1.162432 1.3617295,-1.742024 0.6887631,-0.684865 1.2627201,-1.09023 2.2127771,-1.562806 1.628774,-0.810183 3.067971,-1.113611 4.905483,-1.034234 1.611985,0.06963 2.790165,0.345325 3.93261,0.920216 1.301131,0.654744 2.518176,1.912246 3.238142,3.345785 0.116867,0.232696 0.229837,0.423083 0.251043,0.423083 0.02121,0 0.242313,-0.24019 0.491347,-0.533756 1.75391,-2.067545 3.920636,-3.435696 6.190597,-3.908972 0.925038,-0.192866 1.423462,-0.240843 2.488338,-0.23952 1.859576,0.0023 2.993428,0.236109 4.37646,0.902423 1.05274,0.507187 1.707669,0.981697 2.47712,1.794728 1.223552,1.292852 2.083956,3.251896 2.31403,5.268786 0.03248,0.284754 0.05936,3.408887 0.07507,8.727531 l 0.02448,8.284015 h -2.546395 -2.546396 l -0.03018,-7.418341 c -0.0189,-4.645986 -0.04887,-7.571113 -0.08018,-7.827132 -0.07091,-0.579766 -0.309976,-1.531673 -0.512753,-2.041672 -0.722015,-1.815913 -2.088583,-2.856042 -4.082069,-3.106963 -0.601607,-0.07572 -2.031337,-0.03268 -2.52217,0.07594 -1.287603,0.28493 -2.427028,0.879366 -3.311345,1.727523 -0.875165,0.839381 -1.39532,1.789398 -1.726227,3.152805 l -0.122561,0.504976 -0.03634,4.352414 c -0.01999,2.393828 -0.03864,5.753723 -0.04146,7.466434 l -0.0051,3.11402 h -2.54895 -2.548928 l -0.0039,-5.494622 c -0.0022,-3.022042 -0.02198,-6.52261 -0.04403,-7.779039 -0.038,-2.165291 -0.04638,-2.31486 -0.160616,-2.86822 -0.467842,-2.266171 -1.382575,-3.469692 -3.061736,-4.028352 -0.606046,-0.201632 -1.101403,-0.269281 -1.971812,-0.269281 -1.03524,0 -1.660301,0.105448 -2.555333,0.431087 -1.071555,0.389862 -2.2637672,1.282241 -2.9359377,2.197569 -0.4249129,0.578626 -0.8205459,1.474012 -1.0591583,2.39706 -0.095132,0.368009 -0.101052,0.5615 -0.136104,4.4486 -0.020156,2.235121 -0.03886,5.616658 -0.041565,7.514527 L 7.9979,47.99689 H 5.4248875 2.8519134 Z"
   id="path4658"
   inkscape:connector-curvature="0" /><path
   style="fill:#ff7f66;fill-opacity:0;stroke-width:0.04809298"
   d="M 2.8519134,35.661038 V 23.32519 h 2.5729741 2.5729742 v 2.212277 c 0,1.216752 0.016231,2.211671 0.03607,2.210931 0.019838,-7.4e-4 0.1372468,-0.179286 0.2609077,-0.396767 0.3464306,-0.609265 0.7788379,-1.162432 1.3617295,-1.742024 0.6887631,-0.684865 1.2627201,-1.09023 2.2127771,-1.562806 1.628774,-0.810183 3.067971,-1.113611 4.905483,-1.034234 1.611985,0.06963 2.790165,0.345325 3.93261,0.920216 1.301131,0.654744 2.518176,1.912246 3.238142,3.345785 0.116867,0.232696 0.229837,0.423083 0.251043,0.423083 0.02121,0 0.242313,-0.24019 0.491347,-0.533756 1.75391,-2.067545 3.920636,-3.435696 6.190597,-3.908972 0.925038,-0.192866 1.423462,-0.240843 2.488338,-0.23952 1.859576,0.0023 2.993428,0.236109 4.37646,0.902423 1.05274,0.507187 1.707669,0.981697 2.47712,1.794728 1.223552,1.292852 2.083956,3.251896 2.31403,5.268786 0.03248,0.284754 0.05936,3.408887 0.07507,8.727531 l 0.02448,8.284015 h -2.546395 -2.546396 l -0.03018,-7.418341 c -0.0189,-4.645986 -0.04887,-7.571113 -0.08018,-7.827132 -0.07091,-0.579766 -0.309976,-1.531673 -0.512753,-2.041672 -0.722015,-1.815913 -2.088583,-2.856042 -4.082069,-3.106963 -0.601607,-0.07572 -2.031337,-0.03268 -2.52217,0.07594 -1.287603,0.28493 -2.427028,0.879366 -3.311345,1.727523 -0.875165,0.839381 -1.39532,1.789398 -1.726227,3.152805 l -0.122561,0.504976 -0.03634,4.352414 c -0.01999,2.393828 -0.03864,5.753723 -0.04146,7.466434 l -0.0051,3.11402 h -2.54895 -2.548928 l -0.0039,-5.494622 c -0.0022,-3.022042 -0.02198,-6.52261 -0.04403,-7.779039 -0.038,-2.165291 -0.04638,-2.31486 -0.160616,-2.86822 -0.467842,-2.266171 -1.382575,-3.469692 -3.061736,-4.028352 -0.606046,-0.201632 -1.101403,-0.269281 -1.971812,-0.269281 -1.03524,0 -1.660301,0.105448 -2.555333,0.431087 -1.071555,0.389862 -2.2637672,1.282241 -2.9359377,2.197569 -0.4249129,0.578626 -0.8205459,1.474012 -1.0591583,2.39706 -0.095132,0.368009 -0.101052,0.5615 -0.136104,4.4486 -0.020156,2.235121 -0.03886,5.616658 -0.041565,7.514527 L 7.9979,47.99689 H 5.4248875 2.8519134 Z"
   id="path4660"
   inkscape:connector-curvature="0" /></g>
</svg>