<svg
  xmlns="http://www.w3.org/2000/svg"
  version="1.1"
  viewBox="0 0 2048 2048"
  xmlns:xlink="http://www.w3.org/1999/xlink"
>
  <g>
    <path
      fill="#059669"
      d="M 1386.5,217.5 C 1403.19,220.042 1408.03,229.042 1401,244.5C 1398.57,247.598 1395.57,249.931 1392,251.5C 1391.41,252.483 1391.74,253.15 1393,253.5C 1411.11,248.072 1429.61,245.905 1448.5,247C 1458.54,250.521 1468.21,254.855 1477.5,260C 1493.65,266.853 1509.98,267.187 1526.5,261C 1534.07,258.215 1541.4,254.881 1548.5,251C 1552.83,249.511 1555.17,251.011 1555.5,255.5C 1553.81,271.781 1552.81,288.114 1552.5,304.5C 1553.52,327.161 1553.69,349.827 1553,372.5C 1533.06,379.783 1512.56,385.783 1491.5,390.5C 1488.55,389.512 1485.55,388.679 1482.5,388C 1470.52,381.841 1458.18,376.508 1445.5,372C 1426.61,368.605 1408.27,370.438 1390.5,377.5C 1388.7,405.503 1387.87,433.503 1388,461.5C 1386.49,464.937 1383.83,466.27 1380,465.5C 1377.07,465.477 1374.24,464.977 1371.5,464C 1370.02,462.701 1369.35,461.034 1369.5,459C 1370.29,445.168 1371.13,431.335 1372,417.5C 1372.97,365.641 1374.14,313.641 1375.5,261.5C 1375.17,258.5 1374.83,255.5 1374.5,252.5C 1366.56,247.077 1364.4,239.744 1368,230.5C 1372.24,223.307 1378.41,218.974 1386.5,217.5 Z"
    />
  </g>
  <g id="progress-line-experience">
    <path
      fill="#334155"
      d="M 1441.5,419.5 C 1445.07,419.685 1448.07,421.019 1450.5,423.5C 1448.49,427.513 1445.99,431.18 1443,434.5C 1435.15,429.866 1434.65,424.866 1441.5,419.5 Z"
    />
    <path
      fill="#334155"
      d="M 1457.5,426.5 C 1461.95,429.111 1466.28,431.944 1470.5,435C 1467.41,439.676 1463.75,443.843 1459.5,447.5C 1456.03,445.192 1452.69,442.692 1449.5,440C 1452.3,435.555 1454.97,431.055 1457.5,426.5 Z"
    />
    <path
      fill="#334155"
      d="M 1476.5,440.5 C 1481.01,444.177 1485.01,448.343 1488.5,453C 1485,457.329 1481.34,461.496 1477.5,465.5C 1473.35,461.849 1469.35,458.016 1465.5,454C 1469.29,449.561 1472.96,445.061 1476.5,440.5 Z"
    />
    <path
      fill="#334155"
      d="M 1494.5,458.5 C 1499.93,462.596 1504.27,467.596 1507.5,473.5C 1503.47,477.688 1498.97,481.355 1494,484.5C 1490.31,480.34 1486.47,476.173 1482.5,472C 1486.34,467.331 1490.34,462.831 1494.5,458.5 Z"
    />
    <path
      fill="#334155"
      d="M 1511.5,481.5 C 1516.65,487.468 1519.98,494.468 1521.5,502.5C 1515.96,502.979 1510.63,504.313 1505.5,506.5C 1504.52,506.023 1503.69,505.357 1503,504.5C 1501.32,501.136 1499.65,497.802 1498,494.5C 1497.29,492.633 1497.79,491.133 1499.5,490C 1503.68,487.304 1507.68,484.47 1511.5,481.5 Z"
    />
    <path
      fill="#334155"
      d="M 1506.5,510.5 C 1512.17,510.5 1517.83,510.5 1523.5,510.5C 1524.83,518.5 1524.83,526.5 1523.5,534.5C 1519.82,534.665 1516.15,534.499 1512.5,534C 1509.54,533.771 1507.04,532.604 1505,530.5C 1505.78,524.858 1505.61,519.192 1504.5,513.5C 1505.19,512.482 1505.86,511.482 1506.5,510.5 Z"
    />
    <path
      fill="#334155"
      d="M 1500.5,538.5 C 1506.76,540.315 1513.09,541.982 1519.5,543.5C 1514.96,552.698 1508.63,560.365 1500.5,566.5C 1495.83,562.5 1491.5,558.167 1487.5,553.5C 1492.95,549.391 1497.28,544.391 1500.5,538.5 Z"
    />
    <path
      fill="#334155"
      d="M 1476.5,558.5 C 1478.2,558.34 1479.87,558.506 1481.5,559C 1485.68,563.015 1489.68,567.182 1493.5,571.5C 1484.39,577.591 1474.39,580.758 1463.5,581C 1461.22,575.248 1458.38,570.081 1455,565.5C 1462.27,563.351 1469.43,561.018 1476.5,558.5 Z"
    />
    <path
      fill="#334155"
      d="M 1427.5,565.5 C 1435.56,565.198 1443.56,565.531 1451.5,566.5C 1452.84,572.182 1454.17,577.848 1455.5,583.5C 1447.18,584.124 1438.85,584.457 1430.5,584.5C 1429.37,578.188 1428.37,571.855 1427.5,565.5 Z"
    />
    <path
      fill="#334155"
      d="M 1393.5,561.5 C 1401.9,562.034 1410.23,563.034 1418.5,564.5C 1419.19,565.025 1419.69,565.692 1420,566.5C 1420.97,572.156 1421.81,577.823 1422.5,583.5C 1413.43,582.908 1404.43,581.741 1395.5,580C 1393.87,573.982 1393.21,567.815 1393.5,561.5 Z"
    />
    <path
      fill="#334155"
      d="M 1360.5,555.5 C 1368.49,556.996 1376.49,558.496 1384.5,560C 1385.66,566.069 1386.32,572.236 1386.5,578.5C 1378.7,578.306 1371.03,577.14 1363.5,575C 1361.82,568.656 1360.82,562.156 1360.5,555.5 Z"
    />
    <path
      fill="#334155"
      d="M 1327.5,549.5 C 1335.88,550.576 1344.21,551.909 1352.5,553.5C 1353.09,559.339 1353.76,565.172 1354.5,571C 1354.37,572.059 1353.87,572.892 1353,573.5C 1345.63,571.521 1338.13,570.021 1330.5,569C 1329.03,562.607 1328.03,556.107 1327.5,549.5 Z"
    />
    <path
      fill="#334155"
      d="M 1294.5,543.5 C 1302.85,544.725 1311.18,546.058 1319.5,547.5C 1320,552.846 1320.67,558.179 1321.5,563.5C 1321.52,565.067 1321.02,566.4 1320,567.5C 1313.21,565.95 1306.38,564.45 1299.5,563C 1297.45,556.639 1295.78,550.139 1294.5,543.5 Z"
    />
    <path
      fill="#334155"
      d="M 1260.5,542.5 C 1268.84,542.334 1277.17,542.5 1285.5,543C 1287.55,548.899 1289.21,554.899 1290.5,561C 1290,561.5 1289.5,562 1289,562.5C 1281.91,561.685 1274.75,561.185 1267.5,561C 1264.88,554.988 1262.55,548.821 1260.5,542.5 Z"
    />
    <path
      fill="#334155"
      d="M 1241.5,543.5 C 1245.23,543.177 1248.89,543.511 1252.5,544.5C 1255.53,549.852 1257.2,555.352 1257.5,561C 1251.5,561.833 1245.5,562.667 1239.5,563.5C 1237.63,563.61 1236.13,562.944 1235,561.5C 1232.37,556.702 1229.53,552.035 1226.5,547.5C 1231.42,545.63 1236.42,544.297 1241.5,543.5 Z"
    />
    <path
      fill="#334155"
      d="M 1215.5,548.5 C 1217.59,548.561 1219.09,549.561 1220,551.5C 1222.5,555.833 1225,560.167 1227.5,564.5C 1220.31,567.296 1212.98,569.463 1205.5,571C 1201.38,566.594 1197.38,562.094 1193.5,557.5C 1194.09,556.201 1195.09,555.368 1196.5,555C 1202.84,552.498 1209.17,550.332 1215.5,548.5 Z"
    />

    <path
      fill="#334155"
      d="M 1183.5,560.5 C 1184.55,560.351 1185.55,560.517 1186.5,561C 1190.36,565.355 1194.02,569.855 1197.5,574.5C 1190.5,578.5 1183.5,582.5 1176.5,586.5C 1171.5,582.667 1166.5,578.833 1161.5,575C 1168.38,569.397 1175.72,564.564 1183.5,560.5 Z"
    />

    <path
      fill="#334155"
      d="M 1153.5,579.5 C 1154.92,579.709 1156.26,580.209 1157.5,581C 1161.5,584.667 1165.5,588.333 1169.5,592C 1162.04,597.131 1154.87,602.631 1148,608.5C 1141.85,606.671 1136.01,604.171 1130.5,601C 1137.76,593.233 1145.43,586.067 1153.5,579.5 Z"
    />
    <path
      fill="#334155"
      d="M 1124.5,607.5 C 1125.87,607.343 1127.21,607.51 1128.5,608C 1132.67,610.448 1137,612.615 1141.5,614.5C 1142.52,615.002 1142.69,615.668 1142,616.5C 1135.65,623.865 1130.48,632.032 1126.5,641C 1119.99,640.927 1113.65,639.927 1107.5,638C 1112.01,627.144 1117.68,616.977 1124.5,607.5 Z"
    />
    <path
      fill="#334155"
      d="M 1104.5,647.5 C 1110.55,647.428 1116.55,647.928 1122.5,649C 1123.08,649.893 1123.41,650.893 1123.5,652C 1123.02,655.865 1122.35,659.698 1121.5,663.5C 1115.54,665.048 1109.54,666.381 1103.5,667.5C 1103.39,660.804 1103.72,654.137 1104.5,647.5 Z"
    />
    <path
      fill="#334155"
      d="M 1116.5,672.5 C 1118.83,672.5 1121.17,672.5 1123.5,672.5C 1125,678.173 1127,683.673 1129.5,689C 1124.46,691.85 1119.46,694.683 1114.5,697.5C 1112.57,697.41 1111.41,696.41 1111,694.5C 1108.55,688.598 1106.38,682.598 1104.5,676.5C 1104.71,675.914 1105.04,675.414 1105.5,675C 1109.35,674.367 1113.01,673.533 1116.5,672.5 Z"
    />
    <path
      fill="#334155"
      d="M 1131.5,696.5 C 1132.68,696.281 1133.68,696.614 1134.5,697.5C 1137.92,702.678 1141.59,707.678 1145.5,712.5C 1141.19,716.472 1136.86,720.472 1132.5,724.5C 1126.39,719.053 1121.39,712.72 1117.5,705.5C 1117.98,704.522 1118.64,703.689 1119.5,703C 1123.72,701.059 1127.72,698.892 1131.5,696.5 Z"
    />
    <path
      fill="#334155"
      d="M 1150.5,718.5 C 1156.76,722.089 1162.76,726.089 1168.5,730.5C 1164.12,735.043 1159.95,739.71 1156,744.5C 1149.26,740.43 1143.09,735.596 1137.5,730C 1142.03,726.301 1146.36,722.468 1150.5,718.5 Z"
    />
    <path
      fill="#334155"
      d="M 1176.5,734.5 C 1181.44,736.368 1186.44,738.035 1191.5,739.5C 1190.28,743.24 1188.78,746.907 1187,750.5C 1186.51,752.134 1186.34,753.801 1186.5,755.5C 1187.87,755.657 1189.21,755.49 1190.5,755C 1192.79,752.257 1194.95,749.423 1197,746.5C 1198.12,744.876 1199.62,743.876 1201.5,743.5C 1208.77,745.321 1216.1,746.821 1223.5,748C 1221.02,753.787 1218.35,759.453 1215.5,765C 1207.29,764.616 1199.29,762.949 1191.5,760C 1190.5,759 1189.5,758 1188.5,757C 1179.71,756.021 1171.54,753.188 1164,748.5C 1167.17,743.151 1171.34,738.484 1176.5,734.5 Z"
    />
    <path
      fill="#334155"
      d="M 1232.5,748.5 C 1241.5,749.433 1250.5,750.433 1259.5,751.5C 1256.41,757.17 1253.75,763.003 1251.5,769C 1242.14,768.764 1232.8,767.931 1223.5,766.5C 1225.95,760.259 1228.95,754.259 1232.5,748.5 Z"
    />
    <path
      fill="#334155"
      d="M 1268.5,751.5 C 1276.53,751.344 1284.53,751.677 1292.5,752.5C 1290.35,758.135 1288.19,763.802 1286,769.5C 1277.16,770.889 1268.32,770.556 1259.5,768.5C 1262.26,762.648 1265.26,756.981 1268.5,751.5 Z"
    />
    <path
      fill="#334155"
      d="M 1302.5,753.5 C 1311.24,753.124 1319.9,753.624 1328.5,755C 1325.82,760.697 1323.15,766.364 1320.5,772C 1311.15,772.651 1301.81,772.484 1292.5,771.5C 1292.49,769.692 1292.99,768.025 1294,766.5C 1296.84,762.138 1299.68,757.805 1302.5,753.5 Z"
    />
    <path
      fill="#334155"
      d="M 1337.5,754.5 C 1347.96,754.996 1358.29,756.329 1368.5,758.5C 1365.4,763.973 1362.4,769.473 1359.5,775C 1349.53,774.437 1339.53,773.937 1329.5,773.5C 1331.33,766.843 1333.99,760.51 1337.5,754.5 Z"
    />
    <path
      fill="#334155"
      d="M 1377.5,759.5 C 1386.76,760.398 1395.76,762.398 1404.5,765.5C 1402.31,770.891 1399.81,776.224 1397,781.5C 1396.44,782.022 1395.77,782.355 1395,782.5C 1386.18,779.971 1377.34,777.638 1368.5,775.5C 1371.01,769.816 1374.01,764.482 1377.5,759.5 Z"
    />
    <path
      fill="#334155"
      d="M 1412.5,769.5 C 1422.53,773.017 1431.87,777.85 1440.5,784C 1436.28,788.723 1431.61,792.89 1426.5,796.5C 1419.15,792.323 1411.48,788.99 1403.5,786.5C 1406.02,780.627 1409.02,774.96 1412.5,769.5 Z"
    />
    <path
      fill="#334155"
      d="M 1445.5,789.5 C 1452.25,793.082 1457.58,798.249 1461.5,805C 1456.82,808.343 1451.82,811.177 1446.5,813.5C 1441.57,810.238 1437.23,806.238 1433.5,801.5C 1437.83,797.839 1441.83,793.839 1445.5,789.5 Z"
    />
    <path
      fill="#334155"
      d="M 1462.5,813.5 C 1464.14,813.286 1465.64,813.62 1467,814.5C 1469.9,822.929 1471.4,831.596 1471.5,840.5C 1466.51,840.999 1461.51,841.499 1456.5,842C 1454.81,843.728 1453.64,843.228 1453,840.5C 1451.99,833.763 1450.99,827.096 1450,820.5C 1454.31,818.336 1458.48,816.002 1462.5,813.5 Z"
    />

    <path
      fill="#334155"
      d="M 1453.5,845.5 C 1459.13,848.222 1465.13,849.222 1471.5,848.5C 1470.56,858.254 1468.06,867.587 1464,876.5C 1463.11,877.081 1462.11,877.415 1461,877.5C 1456.81,876.412 1452.65,875.245 1448.5,874C 1447.09,873.632 1446.09,872.799 1445.5,871.5C 1449.41,863.202 1452.07,854.535 1453.5,845.5 Z"
    />

    <path
      fill="#334155"
      d="M 1440.5,879.5 C 1446.94,881.368 1453.27,883.535 1459.5,886C 1454.12,895.051 1447.62,903.217 1440,910.5C 1434.12,907.981 1428.62,905.147 1423.5,902C 1428.69,896.461 1433.52,890.628 1438,884.5C 1439.09,882.922 1439.93,881.255 1440.5,879.5 Z"
    />

    <path
      fill="#334155"
      d="M 1418.5,906.5 C 1424.15,909.272 1429.48,912.772 1434.5,917C 1428.05,922.96 1421.55,928.793 1415,934.5C 1409.52,930.852 1404.36,926.852 1399.5,922.5C 1406.46,917.861 1412.79,912.528 1418.5,906.5 Z"
    />

    <path
      fill="#334155"
      d="M 1388.5,927.5 C 1390.65,927.372 1392.65,927.872 1394.5,929C 1398.65,932.575 1402.99,935.909 1407.5,939C 1397.35,945.769 1386.35,949.602 1374.5,950.5C 1372.22,945.613 1370.22,940.613 1368.5,935.5C 1375.3,933.014 1381.97,930.348 1388.5,927.5 Z"
    />

    <path
      fill="#334155"
      d="M 1334.5,935.5 C 1343.13,936.245 1351.8,936.745 1360.5,937C 1363.2,942.608 1365.2,948.441 1366.5,954.5C 1356.86,955.559 1347.19,955.725 1337.5,955C 1335.48,948.703 1334.48,942.203 1334.5,935.5 Z"
    />
    <path
      fill="#334155"
      d="M 1292.5,926.5 C 1303.36,929.841 1314.36,932.674 1325.5,935C 1327.13,941.02 1328.13,947.186 1328.5,953.5C 1316.2,952.672 1304.2,950.339 1292.5,946.5C 1292.5,939.833 1292.5,933.167 1292.5,926.5 Z"
    />
    <path
      fill="#334155"
      d="M 1260.5,910.5 C 1268.81,914.073 1276.98,918.073 1285,922.5C 1285.5,923.5 1286,924.5 1286.5,925.5C 1285.3,931.119 1284.3,936.785 1283.5,942.5C 1275.71,939.106 1268.05,935.439 1260.5,931.5C 1259.99,924.542 1259.99,917.542 1260.5,910.5 Z"
    />
    <path
      fill="#334155"
      d="M 1229.5,893.5 C 1237.18,897.093 1244.68,901.093 1252,905.5C 1252.78,906.729 1253.28,908.062 1253.5,909.5C 1253,915.249 1252.16,920.916 1251,926.5C 1242.34,922.099 1234.18,917.099 1226.5,911.5C 1227.65,905.477 1228.65,899.477 1229.5,893.5 Z"
    />
    <path
      fill="#334155"
      d="M 1191.5,871.5 C 1201.39,876.713 1211.06,882.38 1220.5,888.5C 1221.62,895.311 1220.96,901.978 1218.5,908.5C 1209.25,903.293 1200.08,897.96 1191,892.5C 1190.21,885.42 1190.37,878.42 1191.5,871.5 Z"
    />
    <path
      fill="#334155"
      d="M 1157.5,853.5 C 1166.02,856.429 1174.02,860.429 1181.5,865.5C 1184.02,872.898 1184.02,880.231 1181.5,887.5C 1173.41,882.707 1165.25,878.04 1157,873.5C 1157.14,866.856 1157.3,860.189 1157.5,853.5 Z"
    />
    <path
      fill="#334155"
      d="M 1121.5,835.5 C 1130.99,839.164 1140.16,843.497 1149,848.5C 1149.81,855.082 1149.64,861.582 1148.5,868C 1140.13,864.902 1131.96,861.068 1124,856.5C 1122.59,849.564 1121.76,842.564 1121.5,835.5 Z"
    />
    <path
      fill="#334155"
      d="M 1080.5,824.5 C 1091.81,826.034 1102.64,829.034 1113,833.5C 1113.9,839.806 1114.4,846.139 1114.5,852.5C 1104.08,848.894 1093.41,846.227 1082.5,844.5C 1081.78,838.796 1080.78,833.129 1079.5,827.5C 1079.69,826.416 1080.02,825.416 1080.5,824.5 Z"
    />
    <path
      fill="#334155"
      d="M 1041.5,821.5 C 1051.98,821.094 1062.31,821.927 1072.5,824C 1073.36,824.689 1074.02,825.522 1074.5,826.5C 1073.97,831.772 1073.97,837.105 1074.5,842.5C 1063.88,841.188 1053.21,840.354 1042.5,840C 1040,834.668 1037,829.668 1033.5,825C 1034.17,824.333 1034.83,823.667 1035.5,823C 1037.71,822.809 1039.71,822.309 1041.5,821.5 Z"
    />
    <path
      fill="#334155"
      d="M 1024.5,823.5 C 1027.23,823.264 1029.56,824.097 1031.5,826C 1031.11,830.96 1032.11,835.793 1034.5,840.5C 1023.69,842.869 1013.03,845.869 1002.5,849.5C 998.195,844.859 993.861,840.193 989.5,835.5C 990.779,833.854 992.445,832.687 994.5,832C 1004.45,828.517 1014.45,825.684 1024.5,823.5 Z"
    />

    <path
      fill="#334155"
      d="M 981.5,837.5 C 982.822,837.33 983.989,837.663 985,838.5C 987.965,842.932 990.798,847.432 993.5,852C 986.358,856.407 979.024,860.574 971.5,864.5C 966.514,860.845 961.847,856.845 957.5,852.5C 964.888,846.475 972.888,841.475 981.5,837.5 Z"
    />
    <path
      fill="#334155"
      d="M 948.5,857.5 C 953.268,860.42 957.934,863.586 962.5,867C 963.517,868.049 963.684,869.216 963,870.5C 957.022,874.977 951.189,879.643 945.5,884.5C 939.279,881.887 933.279,879.053 927.5,876C 934.397,869.596 941.397,863.429 948.5,857.5 Z"
    />

    <path
      fill="#334155"
      d="M 922.5,881.5 C 923.978,881.238 925.311,881.571 926.5,882.5C 930.833,885.333 935.167,888.167 939.5,891C 934.875,895.78 930.375,900.613 926,905.5C 920.426,903.416 914.76,902.75 909,903.5C 907.396,902.932 906.73,901.932 907,900.5C 912.031,893.978 917.197,887.644 922.5,881.5 Z"
    />
    <path
      fill="#334155"
      d="M 903.5,907.5 C 909.486,909.164 915.486,910.83 921.5,912.5C 917.625,919.084 913.625,925.584 909.5,932C 902.434,933.481 895.434,934.814 888.5,936C 888.043,935.586 887.709,935.086 887.5,934.5C 892.104,924.942 897.437,915.942 903.5,907.5 Z"
    />
    <path
      fill="#334155"
      d="M 895.5,941.5 C 898.5,941.5 901.5,941.5 904.5,941.5C 902.353,947.135 900.187,952.802 898,958.5C 888.989,966.345 880.489,974.678 872.5,983.5C 874.231,970.258 877.731,957.258 883,944.5C 887.134,943.014 891.301,942.014 895.5,941.5 Z"
    />

    <path
      fill="#334155"
      d="M 885.5,1017.5 C 886.794,1019.05 887.461,1021.05 887.5,1023.5C 887.909,1030.41 888.576,1037.25 889.5,1044C 883.403,1047.8 877.569,1051.97 872,1056.5C 870.343,1049.91 869.676,1043.25 870,1036.5C 871.667,1035.17 873.333,1033.83 875,1032.5C 878.51,1027.47 882.01,1022.47 885.5,1017.5 Z"
    />
    <path
      fill="#334155"
      d="M 887.5,1054.5 C 888.5,1054.5 889.5,1054.5 890.5,1054.5C 891.693,1061.61 893.36,1068.61 895.5,1075.5C 891.956,1079.21 887.956,1082.37 883.5,1085C 881.975,1086.01 880.308,1086.51 878.5,1086.5C 876.352,1079.25 874.852,1071.92 874,1064.5C 878.659,1061.33 883.159,1058 887.5,1054.5 Z"
    />

    <path
      fill="#334155"
      d="M 895.5,1085.5 C 896.822,1085.33 897.989,1085.66 899,1086.5C 901.891,1093.95 905.058,1101.28 908.5,1108.5C 903.716,1112.4 898.716,1116.07 893.5,1119.5C 888.893,1112.12 885.227,1104.29 882.5,1096C 882.759,1094.74 883.426,1093.74 884.5,1093C 888.58,1090.97 892.246,1088.47 895.5,1085.5 Z"
    />
    <path
      fill="#334155"
      d="M 911.5,1116.5 C 915.354,1122.35 919.354,1128.19 923.5,1134C 919.022,1138.4 914.355,1142.57 909.5,1146.5C 904.673,1140.68 900.673,1134.34 897.5,1127.5C 897.608,1126.56 897.941,1125.72 898.5,1125C 902.898,1122.14 907.232,1119.31 911.5,1116.5 Z"
    />

    <path
      fill="#334155"
      d="M 926.5,1141.5 C 927.822,1141.33 928.989,1141.66 930,1142.5C 934.456,1148.62 939.289,1154.46 944.5,1160C 941.527,1165.46 938.194,1170.62 934.5,1175.5C 926.754,1169.09 920.087,1161.76 914.5,1153.5C 918.215,1149.12 922.215,1145.12 926.5,1141.5 Z"
    />

    <path
      fill="#334155"
      d="M 949.5,1166.5 C 950.922,1166.71 952.255,1167.21 953.5,1168C 960.069,1174.08 966.736,1179.91 973.5,1185.5C 971.62,1191.31 969.453,1196.98 967,1202.5C 957.423,1196.42 948.59,1189.42 940.5,1181.5C 943.763,1176.64 946.763,1171.64 949.5,1166.5 Z"
    />

    <path
      fill="#334155"
      d="M 980.5,1189.5 C 988.617,1194.4 996.951,1199.06 1005.5,1203.5C 1006.33,1208.47 1006.83,1213.47 1007,1218.5C 1007.41,1218.96 1007.91,1219.29 1008.5,1219.5C 1011.32,1215.89 1013.49,1211.89 1015,1207.5C 1022.66,1210.72 1030.5,1213.56 1038.5,1216C 1039.13,1216.75 1039.63,1217.58 1040,1218.5C 1040.53,1224.17 1041.03,1229.84 1041.5,1235.5C 1032.26,1233.92 1023.26,1231.42 1014.5,1228C 1000.57,1222.62 987.407,1215.79 975,1207.5C 975.898,1201.3 977.731,1195.3 980.5,1189.5 Z"
    />

    <path
      fill="#334155"
      d="M 1048.5,1217.5 C 1057.04,1219.08 1065.7,1219.92 1074.5,1220C 1077.41,1225.89 1079.41,1232.06 1080.5,1238.5C 1070.11,1238.87 1059.78,1238.37 1049.5,1237C 1049,1236.5 1048.5,1236 1048,1235.5C 1047.21,1229.42 1047.38,1223.42 1048.5,1217.5 Z"
    />

    <path
      fill="#334155"
      d="M 1107.5,1213.5 C 1109.39,1213.3 1110.89,1213.96 1112,1215.5C 1114.08,1219.34 1116.42,1223 1119,1226.5C 1119.49,1227.79 1119.66,1229.13 1119.5,1230.5C 1109.97,1233.3 1100.3,1235.63 1090.5,1237.5C 1089.56,1237.39 1088.72,1237.06 1088,1236.5C 1086.42,1230.79 1085.09,1225.13 1084,1219.5C 1092.07,1218.06 1099.9,1216.06 1107.5,1213.5 Z"
    />

    <path
      fill="#334155"
      d="M 1143.5,1195.5 C 1144.87,1195.34 1146.21,1195.51 1147.5,1196C 1150.39,1199.4 1153.73,1202.23 1157.5,1204.5C 1158.61,1205.72 1158.78,1207.06 1158,1208.5C 1148.5,1216.33 1138,1222.16 1126.5,1226C 1123.83,1220.98 1121.16,1215.98 1118.5,1211C 1127.2,1206.32 1135.54,1201.15 1143.5,1195.5 Z"
    />

    <path
      fill="#334155"
      d="M 1170.5,1165.5 C 1175.12,1168.82 1180.12,1171.65 1185.5,1174C 1186.02,1174.56 1186.36,1175.23 1186.5,1176C 1180.44,1186.06 1172.94,1194.89 1164,1202.5C 1159.72,1198.64 1155.89,1194.31 1152.5,1189.5C 1159.48,1182.19 1165.48,1174.19 1170.5,1165.5 Z"
    />

    <path
      fill="#334155"
      d="M 1185.5,1133.5 C 1192.19,1133.88 1198.86,1134.55 1205.5,1135.5C 1201.77,1147.53 1196.6,1158.87 1190,1169.5C 1184.7,1166.04 1179.87,1162.04 1175.5,1157.5C 1179.94,1149.96 1183.27,1141.96 1185.5,1133.5 Z"
    />

    <path
      fill="#334155"
      d="M 1198.5,1056.5 C 1200.91,1056.14 1202.41,1057.14 1203,1059.5C 1209.6,1078.18 1211.6,1097.18 1209,1116.5C 1208.69,1119.37 1208.19,1122.2 1207.5,1125C 1206.79,1126.44 1205.62,1127.28 1204,1127.5C 1199.54,1126.75 1195.04,1126.25 1190.5,1126C 1189.48,1125.48 1188.82,1124.65 1188.5,1123.5C 1190,1114.57 1190.83,1105.57 1191,1096.5C 1193.71,1095.38 1196.21,1094.05 1198.5,1092.5C 1196,1090.38 1193.16,1088.71 1190,1087.5C 1188.77,1078.59 1186.61,1069.92 1183.5,1061.5C 1183.71,1060.91 1184.04,1060.41 1184.5,1060C 1189.37,1059.12 1194.03,1057.95 1198.5,1056.5 Z"
    />

    <path
      fill="#334155"
      d="M 1068.5,935.5 C 1077.49,936.435 1085.49,939.602 1092.5,945C 1101.43,947.298 1109.76,950.965 1117.5,956C 1153.16,979.636 1180.49,1010.64 1199.5,1049C 1193.84,1050.62 1188.01,1051.79 1182,1052.5C 1181.17,1052.17 1180.33,1051.83 1179.5,1051.5C 1175.54,1043.74 1171.21,1036.24 1166.5,1029C 1168.27,1026.51 1170.44,1024.35 1173,1022.5C 1173.48,1021.55 1173.65,1020.55 1173.5,1019.5C 1169.51,1019.28 1165.68,1019.95 1162,1021.5C 1160.39,1020.9 1159.06,1019.9 1158,1018.5C 1153.71,1012.54 1149.04,1006.88 1144,1001.5C 1143.91,998.538 1145.24,996.204 1148,994.5C 1148.48,993.552 1148.65,992.552 1148.5,991.5C 1144.37,992.088 1140.37,992.921 1136.5,994C 1129.48,988.636 1122.81,982.97 1116.5,977C 1118.32,974.511 1120.15,972.011 1122,969.5C 1122.49,968.207 1122.66,966.873 1122.5,965.5C 1121.13,965.343 1119.79,965.51 1118.5,966C 1115.55,968.793 1112.21,970.96 1108.5,972.5C 1101.54,968.683 1094.54,964.85 1087.5,961C 1089.65,957.209 1091.65,953.375 1093.5,949.5C 1093.55,948 1092.88,947 1091.5,946.5C 1086.94,950.015 1082.61,953.682 1078.5,957.5C 1072.21,955.511 1065.88,953.678 1059.5,952C 1058.55,951.282 1058.38,950.449 1059,949.5C 1062.42,944.978 1065.59,940.311 1068.5,935.5 Z"
    />

    <path
      fill="#334155"
      d="M 1034.5,928.5 C 1043.72,929.364 1052.72,931.197 1061.5,934C 1057.5,939 1053.5,944 1049.5,949C 1041.77,949.011 1034.1,948.178 1026.5,946.5C 1028.61,940.138 1031.28,934.138 1034.5,928.5 Z"
    />

    <path
      fill="#334155"
      d="M 1009.5,927.5 C 1014.55,927.337 1019.55,927.671 1024.5,928.5C 1023.04,934.707 1020.71,940.54 1017.5,946C 1009.5,946.9 1001.5,947.733 993.5,948.5C 994.164,944.513 994.831,940.513 995.5,936.5C 995.61,934.626 994.944,933.126 993.5,932C 994.551,930.615 995.884,929.615 997.5,929C 1001.69,928.824 1005.69,928.324 1009.5,927.5 Z"
    />
    <path
      fill="#334155"
      d="M 985.5,930.5 C 987.665,930.116 989.332,930.783 990.5,932.5C 988.161,938.547 985.828,944.547 983.5,950.5C 976.033,952.434 968.699,954.767 961.5,957.5C 960.914,957.291 960.414,956.957 960,956.5C 959.667,952.833 959.333,949.167 959,945.5C 957.749,942.184 956.082,941.85 954,944.5C 952.915,949.437 952.248,954.437 952,959.5C 943.618,964.611 935.118,969.611 926.5,974.5C 925.478,970.928 923.978,967.595 922,964.5C 921.085,965.328 920.419,966.328 920,967.5C 919.426,972.281 918.426,976.948 917,981.5C 910,986.5 903,991.5 896,996.5C 897.108,991.926 896.442,987.593 894,983.5C 891.852,984.977 890.518,986.977 890,989.5C 889.072,994.855 888.072,1000.19 887,1005.5C 881.916,1010.08 877.416,1015.08 873.5,1020.5C 870.639,1013.09 869.806,1005.43 871,997.5C 877.5,990.333 884,983.167 890.5,976C 891.449,975.383 892.282,975.549 893,976.5C 920.122,953.003 950.955,937.67 985.5,930.5 Z"
    />

    <path
      fill="#334155"
      d="M 862.5,1006.5 C 864.043,1014.96 865.043,1023.63 865.5,1032.5C 863.325,1032.32 861.325,1031.65 859.5,1030.5C 858.263,1030.56 857.263,1031.06 856.5,1032C 858.042,1034.72 859.376,1037.55 860.5,1040.5C 858.408,1045.1 856.075,1049.6 853.5,1054C 849.471,1052 845.138,1050.5 840.5,1049.5C 840.343,1050.87 840.51,1052.21 841,1053.5C 844.204,1056.37 847.037,1059.54 849.5,1063C 846.766,1067.63 844.433,1072.47 842.5,1077.5C 841.833,1077.83 841.167,1078.17 840.5,1078.5C 837.949,1077.64 835.449,1076.64 833,1075.5C 831.72,1075.61 830.887,1076.28 830.5,1077.5C 833.548,1080.55 836.215,1083.88 838.5,1087.5C 836.42,1093.4 834.754,1099.4 833.5,1105.5C 829.102,1104.47 824.769,1103.14 820.5,1101.5C 817.981,1103.36 817.981,1105.36 820.5,1107.5C 823.914,1109.96 827.414,1112.29 831,1114.5C 830.834,1121.5 830.334,1128.5 829.5,1135.5C 823.275,1134.32 817.109,1132.99 811,1131.5C 812.096,1108.53 817.43,1086.53 827,1065.5C 836.123,1044.21 847.956,1024.54 862.5,1006.5 Z"
    />
    <path
      fill="#334155"
      d="M 811.5,1139.5 C 817.51,1140.8 823.51,1142.3 829.5,1144C 830.432,1149.56 831.765,1155.06 833.5,1160.5C 832.975,1161.19 832.308,1161.69 831.5,1162C 825.167,1162.67 818.833,1162.67 812.5,1162C 810.782,1154.82 810.449,1147.32 811.5,1139.5 Z"
    />
    <path
      fill="#334155"
      d="M 827.5,1169.5 C 830.448,1169.22 833.281,1169.56 836,1170.5C 837.303,1174.74 838.803,1178.91 840.5,1183C 834.003,1186.89 827.003,1189.73 819.5,1191.5C 817.099,1184.63 815.099,1177.63 813.5,1170.5C 818.363,1170.82 823.03,1170.49 827.5,1169.5 Z"
    />
    <path
      fill="#334155"
      d="M 842.5,1191.5 C 843.458,1191.95 844.292,1192.62 845,1193.5C 847.56,1199.62 850.394,1205.62 853.5,1211.5C 847.307,1214.63 840.807,1217.29 834,1219.5C 829.862,1213.39 826.362,1206.89 823.5,1200C 824.167,1199.33 824.833,1198.67 825.5,1198C 831.305,1195.9 836.971,1193.74 842.5,1191.5 Z"
    />
    <path
      fill="#334155"
      d="M 853.5,1220.5 C 855.288,1220.21 856.955,1220.55 858.5,1221.5C 861.311,1226.95 863.977,1232.45 866.5,1238C 859.804,1242.24 852.638,1244.4 845,1244.5C 842.167,1238.83 839.333,1233.17 836.5,1227.5C 842.188,1224.94 847.854,1222.61 853.5,1220.5 Z"
    />
    <path
      fill="#334155"
      d="M 867.5,1246.5 C 868.675,1246.28 869.675,1246.61 870.5,1247.5C 873.408,1253.31 875.741,1259.31 877.5,1265.5C 871.143,1267.01 864.809,1268.67 858.5,1270.5C 857.558,1270.39 856.725,1270.06 856,1269.5C 853.695,1264.39 851.529,1259.22 849.5,1254C 849.905,1253.05 850.572,1252.39 851.5,1252C 857.219,1250.96 862.552,1249.13 867.5,1246.5 Z"
    />
    <path
      fill="#334155"
      d="M 878.5,1272.5 C 879.675,1272.28 880.675,1272.61 881.5,1273.5C 884.407,1280.06 887.407,1286.56 890.5,1293C 883.831,1295.2 876.997,1297.04 870,1298.5C 865.862,1292.39 862.362,1285.89 859.5,1279C 865.924,1276.91 872.258,1274.75 878.5,1272.5 Z"
    />
    <path
      fill="#334155"
      d="M 889.5,1301.5 C 891.167,1301.5 892.833,1301.5 894.5,1301.5C 895.889,1309.89 897.556,1318.22 899.5,1326.5C 896.023,1326.04 892.523,1325.71 889,1325.5C 886.375,1325.58 884.041,1326.25 882,1327.5C 878.848,1320.74 875.682,1313.9 872.5,1307C 872.905,1306.05 873.572,1305.39 874.5,1305C 879.732,1304.27 884.732,1303.11 889.5,1301.5 Z"
    />
    <path
      fill="#334155"
      d="M 882.5,1331.5 C 888.672,1332.8 894.838,1334.13 901,1335.5C 903.004,1344.63 902.504,1353.63 899.5,1362.5C 898.448,1362.65 897.448,1362.48 896.5,1362C 892.499,1358.67 888.166,1355.83 883.5,1353.5C 883.624,1346.23 883.291,1338.9 882.5,1331.5 Z"
    />

    <path
      fill="#334155"
      d="M 878.5,1359.5 C 879.873,1359.34 881.207,1359.51 882.5,1360C 886.846,1363.01 890.512,1366.68 893.5,1371C 889.222,1378.61 883.055,1384.11 875,1387.5C 871.314,1383.31 868.481,1378.48 866.5,1373C 871.056,1368.95 875.056,1364.45 878.5,1359.5 Z"
    />

    <path
      fill="#334155"
      d="M 854.5,1375.5 C 856.5,1375.5 858.5,1375.5 860.5,1375.5C 861.65,1380.81 863.65,1385.81 866.5,1390.5C 858.839,1392.58 851.006,1393.91 843,1394.5C 842.228,1394.36 841.561,1394.02 841,1393.5C 839.514,1388.22 838.347,1382.89 837.5,1377.5C 843.417,1377.78 849.084,1377.12 854.5,1375.5 Z"
    />
    <path
      fill="#334155"
      d="M 810.5,1374.5 C 816.784,1375.78 823.117,1376.78 829.5,1377.5C 830.5,1382.83 831.5,1388.17 832.5,1393.5C 823.84,1392.42 815.506,1390.25 807.5,1387C 808.661,1382.86 809.661,1378.7 810.5,1374.5 Z"
    />
    <path
      fill="#334155"
      d="M 779.5,1363.5 C 787.683,1365.62 795.516,1368.62 803,1372.5C 802.659,1376.88 801.826,1381.21 800.5,1385.5C 792.274,1384.48 784.441,1382.15 777,1378.5C 778.527,1373.71 779.36,1368.71 779.5,1363.5 Z"
    />

    <path
      fill="#334155"
      d="M 749.5,1345.5 C 757.968,1349.9 766.301,1354.57 774.5,1359.5C 775.428,1360.77 775.595,1362.1 775,1363.5C 773.294,1367.08 771.461,1370.58 769.5,1374C 768.5,1374.67 767.5,1374.67 766.5,1374C 758.968,1370.41 751.968,1366.07 745.5,1361C 746.921,1355.82 748.254,1350.65 749.5,1345.5 Z"
    />
    <path
      fill="#334155"
      d="M 715.5,1333.5 C 725.618,1333.82 734.618,1336.98 742.5,1343C 741.094,1347.45 739.76,1351.95 738.5,1356.5C 737.635,1357.58 736.635,1357.75 735.5,1357C 730.401,1354.12 725.067,1351.78 719.5,1350C 716.946,1344.88 715.613,1339.38 715.5,1333.5 Z"
    />
    <path
      fill="#334155"
      d="M 700.5,1333.5 C 703.119,1333.23 705.619,1333.56 708,1334.5C 708.465,1338.85 708.965,1343.18 709.5,1347.5C 700.663,1346.74 692.163,1348.07 684,1351.5C 681.723,1350.46 680.556,1348.63 680.5,1346C 680.439,1344.29 681.106,1342.96 682.5,1342C 688.198,1338.32 694.198,1335.48 700.5,1333.5 Z"
    />
  </g>

  <g>
    <path
      fill="#059669"
      d="M 657.5,1234.5 C 659.017,1234.51 660.184,1235.18 661,1236.5C 662.658,1239.31 663.825,1242.31 664.5,1245.5C 663.922,1250.06 663.255,1254.56 662.5,1259C 673.587,1256.18 680.253,1260.18 682.5,1271C 680.646,1275.2 678.146,1279.03 675,1282.5C 654.364,1301.47 634.031,1320.8 614,1340.5C 613.333,1343.5 613.333,1346.5 614,1349.5C 630.222,1364.7 643.722,1381.87 654.5,1401C 650.153,1408.85 645.653,1416.69 641,1424.5C 636.355,1428.66 631.355,1432.32 626,1435.5C 623.828,1434.41 621.828,1433.08 620,1431.5C 617.108,1437.74 612.274,1440.57 605.5,1440C 603.316,1434.46 600.483,1429.3 597,1424.5C 588.296,1415.46 579.962,1406.13 572,1396.5C 555.545,1417.29 538.711,1437.79 521.5,1458C 519.212,1458.42 517.212,1457.75 515.5,1456C 514.174,1453.84 512.507,1452.01 510.5,1450.5C 506.874,1452.25 504.374,1451.25 503,1447.5C 498.039,1433.79 494.205,1419.79 491.5,1405.5C 492.97,1402.69 493.803,1399.69 494,1396.5C 505.539,1385.96 517.372,1375.79 529.5,1366C 534.015,1361.65 538.349,1357.15 542.5,1352.5C 539.177,1346.53 537.011,1340.2 536,1333.5C 527.524,1319.08 521.191,1303.74 517,1287.5C 515,1283.5 513,1279.5 511,1275.5C 510.333,1273.17 510.333,1270.83 511,1268.5C 515.644,1263.44 521.144,1259.77 527.5,1257.5C 528.772,1257.57 529.938,1257.9 531,1258.5C 534.688,1253.31 539.188,1248.98 544.5,1245.5C 547.311,1246.78 549.478,1248.78 551,1251.5C 558.016,1263.86 564.183,1276.53 569.5,1289.5C 571.903,1289.39 573.736,1290.39 575,1292.5C 577.658,1297.64 579.825,1302.98 581.5,1308.5C 582.002,1309.52 582.668,1309.69 583.5,1309C 603.48,1289.69 621.98,1269.19 639,1247.5C 641.5,1245 644,1242.5 646.5,1240C 650.787,1239.19 654.454,1237.36 657.5,1234.5 Z"
    />
  </g>
</svg>